<svg width="12" height="12" viewBox="0 0 12 12" fill="none" xmlns="http://www.w3.org/2000/svg">
<g clip-path="url(#clip0_13948_4497)">
<path fill-rule="evenodd" clip-rule="evenodd" d="M6.00017 2.4C6.66291 2.4 7.20017 1.86274 7.20017 1.2C7.20017 0.537258 6.66291 0 6.00017 0C5.33743 0 4.80017 0.537258 4.80017 1.2C4.80017 1.86274 5.33743 2.4 6.00017 2.4ZM6.00017 7.20001C6.66291 7.20001 7.20017 6.66275 7.20017 6.00001C7.20017 5.33726 6.66291 4.80001 6.00017 4.80001C5.33743 4.80001 4.80017 5.33726 4.80017 6.00001C4.80017 6.66275 5.33743 7.20001 6.00017 7.20001ZM7.20017 10.8C7.20017 11.4628 6.66291 12 6.00017 12C5.33743 12 4.80017 11.4628 4.80017 10.8C4.80017 10.1373 5.33743 9.60001 6.00017 9.60001C6.66291 9.60001 7.20017 10.1373 7.20017 10.8Z" fill="#111827"/>
</g>
<defs>
<clipPath id="clip0_13948_4497">
<rect width="12" height="12" fill="white"/>
</clipPath>
</defs>
</svg>
