<svg width="16" height="16" viewBox="0 0 16 16" fill="none" xmlns="http://www.w3.org/2000/svg">
<g clip-path="url(#clip0_13917_2675)">
<path d="M14.4 0.914062H1.6C1.17639 0.916463 0.770821 1.0858 0.471281 1.38534C0.171742 1.68488 0.00240009 2.09046 0 2.51406V13.4855C0.00240009 13.9091 0.171742 14.3147 0.471281 14.6142C0.770821 14.9137 1.17639 15.0831 1.6 15.0855H14.4C14.8236 15.0831 15.2292 14.9137 15.5287 14.6142C15.8283 14.3147 15.9976 13.9091 16 13.4855V2.51406C15.9976 2.09046 15.8283 1.68488 15.5287 1.38534C15.2292 1.0858 14.8236 0.916463 14.4 0.914062ZM1.6 2.28549H14.4C14.4606 2.28549 14.5188 2.30957 14.5616 2.35244C14.6045 2.3953 14.6286 2.45344 14.6286 2.51406V3.92206L8 7.23178L1.37143 3.92206V2.51406C1.37143 2.45344 1.39551 2.3953 1.43838 2.35244C1.48124 2.30957 1.53938 2.28549 1.6 2.28549ZM14.4 13.7141H1.6C1.53938 13.7141 1.48124 13.69 1.43838 13.6471C1.39551 13.6042 1.37143 13.5461 1.37143 13.4855V5.44892L7.68914 8.61235C7.78566 8.66062 7.89209 8.68576 8 8.68576C8.10791 8.68576 8.21434 8.66062 8.31086 8.61235L14.6286 5.44892V13.4855C14.6286 13.5461 14.6045 13.6042 14.5616 13.6471C14.5188 13.69 14.4606 13.7141 14.4 13.7141Z" fill="#111827"/>
</g>
<defs>
<clipPath id="clip0_13917_2675">
<rect width="16" height="16" fill="white"/>
</clipPath>
</defs>
</svg>
