<svg width="16" height="16" viewBox="0 0 16 16" fill="none" xmlns="http://www.w3.org/2000/svg">
<path d="M14.0809 5.25714L8.93129 0.201143C8.80043 0.0725098 8.62291 0.000160048 8.43774 0H4.2752C3.59602 0 2.94466 0.264897 2.46441 0.736417C1.98416 1.20794 1.71436 1.84746 1.71436 2.51429V13.4857C1.71436 14.1525 1.98416 14.7921 2.46441 15.2636C2.94466 15.7351 3.59602 16 4.2752 16H11.7249C12.4041 16 13.0555 15.7351 13.5357 15.2636C14.016 14.7921 14.2858 14.1525 14.2858 13.4857V5.71429C14.2785 5.54204 14.2053 5.37882 14.0809 5.25714ZM9.16409 2.34057L11.9019 5.02857H9.16409V2.34057ZM11.7249 14.6286H4.2752C3.96648 14.6286 3.67041 14.5082 3.45211 14.2938C3.23382 14.0795 3.11118 13.7888 3.11118 13.4857V2.51429C3.11118 2.21118 3.23382 1.92049 3.45211 1.70616C3.67041 1.49184 3.96648 1.37143 4.2752 1.37143H7.76727V5.71429C7.76968 5.89541 7.84403 6.06845 7.97449 6.19654C8.10495 6.32463 8.2812 6.39763 8.46568 6.4H12.889V13.4857C12.889 13.7888 12.7663 14.0795 12.548 14.2938C12.3297 14.5082 12.0337 14.6286 11.7249 14.6286Z" fill="#111827"/>
<path d="M5.14282 9.14258H10.8571" stroke="black" stroke-linecap="round"/>
<path d="M5.14282 11.4287H10.8571" stroke="black" stroke-linecap="round"/>
</svg>
