<svg width="16" height="16" viewBox="0 0 16 16" fill="none" xmlns="http://www.w3.org/2000/svg">
<g clip-path="url(#clip0_13917_2673)">
<path d="M13.892 16H13.6816C11.3111 15.7421 9.03368 14.9339 7.03092 13.6398C5.17036 12.4548 3.59067 10.8782 2.40199 9.02001C1.10493 7.012 0.296577 4.72793 0.0417846 2.35106C0.0126508 2.06756 0.0414149 1.78109 0.126332 1.50904C0.211249 1.23699 0.350549 0.985029 0.535781 0.768439C0.715941 0.548949 0.938315 0.367844 1.18973 0.235849C1.44115 0.103855 1.7165 0.0236552 1.99947 0H4.37798C4.89312 0.000519712 5.39109 0.185219 5.78198 0.520744C6.17287 0.85627 6.4309 1.32051 6.50948 1.82962C6.59634 2.48359 6.75905 3.12523 6.99433 3.74157C7.13744 4.12888 7.16698 4.54901 7.07947 4.95253C6.99195 5.35606 6.79103 5.72621 6.50033 6.01944L5.9423 6.57747C6.8209 7.96451 7.99944 9.1368 9.39113 10.008L9.94916 9.45912C10.2424 9.16842 10.6125 8.9675 11.0161 8.87998C11.4196 8.79247 11.8397 8.82201 12.227 8.96512C12.844 9.19825 13.4854 9.3609 14.139 9.44997C14.6568 9.52781 15.1284 9.79195 15.4653 10.1928C15.8021 10.5937 15.9811 11.1037 15.9686 11.6272V13.8228C15.9686 14.3938 15.7424 14.9415 15.3395 15.3461C14.9366 15.7508 14.3898 15.9793 13.8188 15.9817L13.892 16ZM4.37798 1.36306H2.19158C2.08423 1.37016 1.97943 1.39895 1.88352 1.4477C1.7876 1.49644 1.70257 1.56412 1.63355 1.64666C1.56638 1.72397 1.51554 1.81407 1.4841 1.91155C1.45266 2.00902 1.44126 2.11184 1.45059 2.21384C1.67242 4.36983 2.39615 6.44391 3.5638 8.26987C4.6402 9.95923 6.07341 11.3924 7.76277 12.4688C9.58987 13.6488 11.6662 14.3879 13.8279 14.6278C13.9404 14.6341 14.0529 14.6171 14.1584 14.5777C14.2639 14.5383 14.3601 14.4775 14.4409 14.3991C14.5865 14.2497 14.6685 14.0497 14.6696 13.8411V11.6547C14.6737 11.4621 14.6071 11.2748 14.4823 11.1281C14.3575 10.9814 14.1833 10.8856 13.9926 10.8588C13.2368 10.7572 12.4945 10.5731 11.7788 10.3099C11.6378 10.2572 11.4847 10.2455 11.3374 10.2763C11.19 10.3071 11.0544 10.379 10.9463 10.4837L10.0315 11.3985C9.92435 11.503 9.78636 11.5701 9.63802 11.5899C9.48969 11.6096 9.33894 11.581 9.20816 11.5083C7.25613 10.4052 5.64038 8.79264 4.53349 6.84277C4.45773 6.71284 4.42739 6.56138 4.44727 6.41229C4.46715 6.2632 4.53611 6.12498 4.64327 6.01944L5.55808 5.10463C5.66299 4.99854 5.73516 4.8645 5.76598 4.71851C5.7968 4.57252 5.78497 4.42075 5.73189 4.2813C5.46769 3.56591 5.2836 2.82343 5.18301 2.06747C5.16031 1.87103 5.0653 1.69007 4.91648 1.55985C4.76766 1.42964 4.57569 1.35948 4.37798 1.36306Z" fill="#111827"/>
</g>
<defs>
<clipPath id="clip0_13917_2673">
<rect width="16" height="16" fill="white"/>
</clipPath>
</defs>
</svg>
