<svg width="14" height="14" viewBox="0 0 14 14" fill="none" xmlns="http://www.w3.org/2000/svg">
<path d="M10.5 6.4165C10.5 4.16134 8.67179 2.33317 6.41663 2.33317C4.16146 2.33317 2.33329 4.16134 2.33329 6.4165C2.33329 8.67167 4.16146 10.4998 6.41663 10.4998C8.67179 10.4998 10.5 8.67167 10.5 6.4165ZM11.6666 6.4165C11.6666 7.65607 11.236 8.7945 10.5176 9.69263L12.6624 11.8374C12.8902 12.0652 12.8902 12.4345 12.6624 12.6623C12.4346 12.8901 12.0653 12.8901 11.8375 12.6623L9.69275 10.5175C8.79462 11.2359 7.65619 11.6665 6.41663 11.6665C3.51713 11.6665 1.16663 9.316 1.16663 6.4165C1.16663 3.51701 3.51713 1.1665 6.41663 1.1665C9.31612 1.1665 11.6666 3.51701 11.6666 6.4165Z" fill="#94A3B8"/>
</svg>
