<svg width="18" height="18" viewBox="0 0 18 18" fill="none" xmlns="http://www.w3.org/2000/svg">
<path d="M2.25 15.75V11.25H1.5C1.08579 11.25 0.75 10.9142 0.75 10.5C0.75 10.0858 1.08579 9.75 1.5 9.75H4.5C4.91421 9.75 5.25 10.0858 5.25 10.5C5.25 10.9142 4.91421 11.25 4.5 11.25H3.75V15.75C3.75 16.1642 3.41421 16.5 3 16.5C2.58579 16.5 2.25 16.1642 2.25 15.75ZM8.25 15.75V9C8.25 8.58579 8.58579 8.25 9 8.25C9.41421 8.25 9.75 8.58579 9.75 9V15.75C9.75 16.1642 9.41421 16.5 9 16.5C8.58579 16.5 8.25 16.1642 8.25 15.75ZM14.25 15.75V12.75H13.5C13.0858 12.75 12.75 12.4142 12.75 12C12.75 11.5858 13.0858 11.25 13.5 11.25H16.5C16.9142 11.25 17.25 11.5858 17.25 12C17.25 12.4142 16.9142 12.75 16.5 12.75H15.75V15.75C15.75 16.1642 15.4142 16.5 15 16.5C14.5858 16.5 14.25 16.1642 14.25 15.75ZM14.25 9V2.25C14.25 1.83579 14.5858 1.5 15 1.5C15.4142 1.5 15.75 1.83579 15.75 2.25V9C15.75 9.41421 15.4142 9.75 15 9.75C14.5858 9.75 14.25 9.41421 14.25 9ZM2.25 7.5V2.25C2.25 1.83579 2.58579 1.5 3 1.5C3.41421 1.5 3.75 1.83579 3.75 2.25V7.5C3.75 7.91421 3.41421 8.25 3 8.25C2.58579 8.25 2.25 7.91421 2.25 7.5ZM8.25 2.25C8.25 1.83579 8.58579 1.5 9 1.5C9.41421 1.5 9.75 1.83579 9.75 2.25V5.25H10.5C10.9142 5.25 11.25 5.58579 11.25 6C11.25 6.41421 10.9142 6.75 10.5 6.75H7.5C7.08579 6.75 6.75 6.41421 6.75 6C6.75 5.58579 7.08579 5.25 7.5 5.25H8.25V2.25Z" fill="#006BB6"/>
</svg>
