<svg width="14" height="14" viewBox="0 0 14 14" fill="none" xmlns="http://www.w3.org/2000/svg">
<g clip-path="url(#clip0_13948_1090)">
<path fill-rule="evenodd" clip-rule="evenodd" d="M2.2 1.9998C1.64772 1.9998 1.2 2.44752 1.2 2.9998V6.3998H6.4V1.9998H2.2ZM7 0.799805H2.2C0.984974 0.799805 0 1.78478 0 2.9998V6.9998V10.9998C0 12.2148 0.984974 13.1998 2.2 13.1998H7H11.8C13.015 13.1998 14 12.2148 14 10.9998V6.9998V2.9998C14 1.78478 13.015 0.799805 11.8 0.799805H7ZM7.6 1.9998V6.3998H12.8V2.9998C12.8 2.44752 12.3523 1.9998 11.8 1.9998H7.6ZM6.4 7.5998H1.2V10.9998C1.2 11.5521 1.64772 11.9998 2.2 11.9998H6.4V7.5998ZM7.6 11.9998V7.5998H12.8V10.9998C12.8 11.5521 12.3523 11.9998 11.8 11.9998H7.6Z" fill="#006BB6"/>
</g>
<defs>
<clipPath id="clip0_13948_1090">
<rect width="14" height="14" fill="white"/>
</clipPath>
</defs>
</svg>
