<svg width="14" height="14" viewBox="0 0 14 14" fill="none" xmlns="http://www.w3.org/2000/svg">
<path d="M8.0118 7.00933L12.27 2.75116C12.341 2.68501 12.3979 2.60524 12.4374 2.51661C12.4769 2.42798 12.4981 2.3323 12.4998 2.23529C12.5015 2.13827 12.4837 2.0419 12.4474 1.95194C12.411 1.86197 12.3569 1.78024 12.2883 1.71163C12.2197 1.64302 12.138 1.58893 12.048 1.55259C11.958 1.51625 11.8617 1.4984 11.7647 1.50011C11.6676 1.50182 11.572 1.52306 11.4833 1.56255C11.3947 1.60204 11.3149 1.65898 11.2488 1.72997L6.99061 5.98814L2.73244 1.72997C2.59547 1.60234 2.41431 1.53286 2.22712 1.53616C2.03993 1.53946 1.86134 1.61529 1.72895 1.74767C1.59657 1.88006 1.52074 2.05865 1.51744 2.24584C1.51414 2.43303 1.58362 2.61419 1.71125 2.75116L5.96942 7.00933L1.71125 11.2675C1.57594 11.403 1.49994 11.5866 1.49994 11.7781C1.49994 11.9696 1.57594 12.1532 1.71125 12.2887C1.84672 12.424 2.03037 12.5 2.22184 12.5C2.41332 12.5 2.59696 12.424 2.73244 12.2887L6.99061 8.03052L11.2488 12.2887C11.3843 12.424 11.5679 12.5 11.7594 12.5C11.9509 12.5 12.1345 12.424 12.27 12.2887C12.4053 12.1532 12.4813 11.9696 12.4813 11.7781C12.4813 11.5866 12.4053 11.403 12.27 11.2675L8.0118 7.00933Z" fill="#64748B"/>
</svg>
